<svg width="480" height="480" viewBox="0 0 480 480" fill="none" xmlns="http://www.w3.org/2000/svg">
<path d="M235.666 149.194C235.712 149.19 236.65 148.867 237.75 148.478C238.85 148.088 240.312 147.898 241 148.055C244.77 148.919 246.5 151.082 246.5 154.934C246.5 156.835 246.215 157.528 244.789 159.084C243.167 160.853 242.915 160.951 240 160.951C237.085 160.951 236.833 160.853 235.211 159.084C233.776 157.517 233.5 156.841 233.5 154.893C233.5 153.412 233.877 151.959 234.541 150.885C235.113 149.959 235.619 149.198 235.666 149.194Z" fill="black"/>
<path d="M84 239.701C84 158.489 84.0635 151.709 84.829 150.944C85.285 150.488 86.1285 150.209 86.704 150.325C87.2795 150.44 115.368 170.268 149.125 194.387C206.609 235.46 210.5 238.333 210.5 239.701C210.5 241.069 206.609 243.942 149.125 285.015C115.368 309.134 87.2795 328.963 86.704 329.078C86.1285 329.193 85.285 328.915 84.829 328.459C84.0635 327.693 84 320.914 84 239.701Z" fill="black"/>
<path d="M269.5 239.701C269.5 238.333 273.398 235.456 331.125 194.222C365.019 170.012 393.128 150.203 393.59 150.202C394.051 150.202 394.782 150.555 395.215 150.987C395.923 151.695 396 160.433 396 239.701C396 320.914 395.936 327.693 395.171 328.459C394.715 328.915 393.871 329.193 393.296 329.078C392.72 328.963 364.632 309.134 330.875 285.015C273.387 243.939 269.5 241.069 269.5 239.701Z" fill="black"/>
<path d="M233.5 188.82C233.5 185.471 235.152 183.191 238.25 182.265C240.943 181.46 244.234 182.769 245.682 185.221C246.132 185.983 246.5 187.643 246.5 188.911C246.5 190.838 246.22 191.522 244.789 193.084C243.167 194.853 242.915 194.951 240 194.951C237.085 194.951 236.833 194.853 235.211 193.084C233.76 191.5 233.5 190.851 233.5 188.82Z" fill="black"/>
<path d="M233.5 222.701C233.5 220.327 233.681 219.903 235.441 218.142C237.202 216.382 237.626 216.201 240 216.201C242.374 216.201 242.798 216.382 244.559 218.142C246.319 219.903 246.5 220.327 246.5 222.701C246.5 225.075 246.319 225.5 244.559 227.26C242.798 229.021 242.374 229.201 240 229.201C237.626 229.201 237.202 229.021 235.441 227.26C233.681 225.5 233.5 225.075 233.5 222.701Z" fill="black"/>
<path d="M233.5 256.701C233.5 254.327 233.681 253.903 235.441 252.142C237.202 250.382 237.626 250.201 240 250.201C242.374 250.201 242.798 250.382 244.559 252.142C246.319 253.903 246.5 254.327 246.5 256.701C246.5 259.075 246.319 259.5 244.559 261.26C242.798 263.021 242.374 263.201 240 263.201C237.626 263.201 237.202 263.021 235.441 261.26C233.681 259.5 233.5 259.075 233.5 256.701Z" fill="black"/>
<path d="M233.5 290.537C233.5 288.119 235.114 285.561 237.209 284.658C237.782 284.412 239.361 284.292 240.719 284.391C242.802 284.544 243.447 284.855 244.844 286.38C246.218 287.879 246.5 288.579 246.5 290.492C246.5 294.512 243.817 297.338 240 297.338C236.201 297.338 233.5 294.512 233.5 290.537Z" fill="black"/>
<path d="M233.5 324.556C233.5 322.118 235.106 319.564 237.209 318.658C237.782 318.412 239.361 318.292 240.719 318.391C242.802 318.544 243.447 318.855 244.844 320.38C246.213 321.873 246.5 322.582 246.5 324.469C246.5 327.352 245.423 329.457 243.417 330.494C238.592 332.989 233.5 329.94 233.5 324.556Z" fill="black"/>
</svg>
