<svg width="251" height="283" viewBox="0 0 251 283" fill="none" xmlns="http://www.w3.org/2000/svg">
<path d="M250.5 157.5C250.5 153.358 247.142 150 243 150C238.858 150 235.5 153.358 235.5 157.5H250.5ZM208.585 74.415L163.114 0.710514L122.019 76.9422L208.585 74.415ZM235.5 157.5C235.5 218.251 186.251 267.5 125.5 267.5V282.5C194.536 282.5 250.5 226.536 250.5 157.5H235.5ZM125.5 267.5C64.7487 267.5 15.5 218.251 15.5 157.5H0.5C0.5 226.536 56.4644 282.5 125.5 282.5V267.5ZM15.5 157.5C15.5 96.7487 64.7487 47.5 125.5 47.5V32.5C56.4644 32.5 0.5 88.4644 0.5 157.5H15.5ZM125.5 47.5C133.099 47.5 140.511 48.2695 147.664 49.7323L150.67 35.0365C142.533 33.3725 134.115 32.5 125.5 32.5V47.5Z" fill="black"/>
</svg>
