<svg width="251" height="283" viewBox="0 0 251 283" fill="none" xmlns="http://www.w3.org/2000/svg">
<path d="M0.500015 157.5C0.500015 153.358 3.85788 150 8.00002 150C12.1422 150 15.5 153.358 15.5 157.5H0.500015ZM42.415 74.415L87.8864 0.710508L128.981 76.9422L42.415 74.415ZM15.5 157.5C15.5 218.251 64.7487 267.5 125.5 267.5V282.5C56.4644 282.5 0.500015 226.536 0.500015 157.5H15.5ZM125.5 267.5C186.251 267.5 235.5 218.251 235.5 157.5H250.5C250.5 226.536 194.536 282.5 125.5 282.5V267.5ZM235.5 157.5C235.5 96.7487 186.251 47.5 125.5 47.5V32.5C194.536 32.5 250.5 88.4644 250.5 157.5H235.5ZM125.5 47.5C117.901 47.5 110.489 48.2695 103.336 49.7323L100.33 35.0365C108.467 33.3725 116.885 32.5 125.5 32.5V47.5Z" fill="black"/>
</svg>
