<svg width="480" height="480" viewBox="0 0 480 480" fill="none" xmlns="http://www.w3.org/2000/svg">
<path fill-rule="evenodd" clip-rule="evenodd" d="M150.816 85.0575C150.393 85.6615 150.22 86.5095 150.414 87.0335C151.15 89.0215 238.307 210.46 239.159 210.684C239.705 210.828 240.634 210.39 241.482 209.587C244.158 207.055 329 87.612 329 86.377C329 85.7295 328.73 84.93 328.4 84.6C327.938 84.138 307.551 84 239.679 84H151.557L150.816 85.0575ZM151.515 234.139C149.673 235.072 148 237.861 148 240C148 242.139 149.673 244.928 151.515 245.861C154.408 247.324 158.545 246.28 160.271 243.65C162.242 240.647 161.057 235.831 157.951 234.225C156.237 233.338 153.179 233.298 151.515 234.139ZM185.515 234.139C183.673 235.072 182 237.861 182 240C182 242.139 183.673 244.928 185.515 245.861C187.325 246.776 190.526 246.633 192.29 245.557C193.922 244.562 195.5 241.831 195.5 240C195.5 238.169 193.922 235.438 192.29 234.443C190.526 233.367 187.325 233.224 185.515 234.139ZM218.949 234.641C217.856 235.375 216.988 236.535 216.516 237.891C215.87 239.746 215.87 240.254 216.516 242.109C217.457 244.812 219.853 246.5 222.75 246.5C225.647 246.5 228.043 244.812 228.984 242.109C229.63 240.254 229.63 239.746 228.984 237.891C228.043 235.188 225.647 233.5 222.75 233.5C221.39 233.5 220.047 233.903 218.949 234.641ZM252.949 234.641C251.856 235.375 250.988 236.535 250.516 237.891C249.87 239.746 249.87 240.254 250.516 242.109C251.457 244.812 253.853 246.5 256.75 246.5C259.647 246.5 262.043 244.812 262.984 242.109C263.63 240.254 263.63 239.746 262.984 237.891C262.043 235.188 259.647 233.5 256.75 233.5C255.39 233.5 254.047 233.903 252.949 234.641ZM286.949 234.641C285.856 235.375 284.988 236.535 284.516 237.891C283.87 239.746 283.87 240.254 284.516 242.109C285.457 244.812 287.853 246.5 290.75 246.5C293.647 246.5 296.043 244.812 296.984 242.109C297.63 240.254 297.63 239.746 296.984 237.891C296.043 235.188 293.647 233.5 290.75 233.5C289.39 233.5 288.047 233.903 286.949 234.641ZM321.446 234.249C317.26 236.524 317.123 243.065 321.21 245.557C323.341 246.857 326.974 246.807 328.693 245.456C333.805 241.434 331.378 233.465 325.057 233.52C323.788 233.531 322.163 233.859 321.446 234.249ZM239 269.346C238.256 269.535 151.065 391.208 150.414 392.966C150.22 393.49 150.393 394.339 150.816 394.943L151.557 396H239.679C307.551 396 327.938 395.862 328.4 395.4C328.73 395.07 328.987 394.226 328.972 393.525C328.941 392.091 242.474 270.782 240.75 269.753C240.2 269.424 239.412 269.242 239 269.346Z" fill="black"/>
</svg>
