<svg width="251" height="251" viewBox="0 0 251 251" fill="none" xmlns="http://www.w3.org/2000/svg">
<path d="M243 243L186.3 186.3M186.3 186.3C195.999 176.602 203.692 165.088 208.941 152.416C214.19 139.744 216.892 126.162 216.892 112.446C216.892 98.7299 214.19 85.1482 208.941 72.4762C203.693 59.8042 195.999 48.2902 186.3 38.5915C176.602 28.8928 165.088 21.1994 152.416 15.9505C139.744 10.7016 126.162 8 112.446 8C98.7299 8 85.1482 10.7016 72.4762 15.9505C59.8042 21.1994 48.2902 28.8928 38.5915 38.5915C19.0041 58.1789 8 84.7452 8 112.446C8 140.147 19.0041 166.713 38.5915 186.3C58.1789 205.888 84.7452 216.892 112.446 216.892C140.147 216.892 166.713 205.888 186.3 186.3ZM112.446 73.2797V151.612M73.2797 112.446H151.612" stroke="black" stroke-width="15" stroke-linecap="round" stroke-linejoin="round"/>
</svg>
